<?xml version="1.0" standalone="no"?>
<!DOCTYPE svg PUBLIC "-//W3C//DTD SVG 20010904//EN"
 "http://www.w3.org/TR/2001/REC-SVG-20010904/DTD/svg10.dtd">
<svg version="1.0" xmlns="http://www.w3.org/2000/svg"
 width="612.000000pt" height="243.000000pt" viewBox="0 0 612.000000 243.000000"
 preserveAspectRatio="xMidYMid meet">
<metadata>
Created by potrace 1.10, written by Peter Selinger 2001-2011
</metadata>
<g transform="translate(0.000000,243.000000) scale(0.100000,-0.100000)"
fill="#000000" stroke="none">
<path d="M1150 2384 c-14 -2 -59 -9 -100 -15 -234 -34 -475 -157 -649 -330
-48 -49 -147 -173 -178 -224 -27 -45 -83 -162 -83 -174 0 -7 -6 -22 -12 -34
-30 -54 -78 -301 -78 -402 0 -101 43 -322 83 -425 14 -38 71 -153 90 -185 32
-52 133 -180 177 -225 45 -44 172 -144 225 -177 30 -18 154 -78 200 -96 344
-133 745 -84 1070 131 101 67 289 258 318 322 4 8 16 29 27 45 30 47 90 170
90 186 0 8 7 23 15 33 8 11 15 31 15 44 0 13 5 32 11 43 17 33 39 206 39 308
0 130 -33 319 -66 383 -8 14 -14 32 -14 39 0 14 -61 138 -90 184 -11 17 -23
37 -27 45 -8 16 -12 22 -87 111 -144 172 -346 303 -566 366 -125 35 -338 60
-410 47z m-37 -121 c4 -3 2 -12 -4 -20 -6 -7 -11 -30 -11 -51 1 -32 -4 -41
-34 -61 -69 -48 -144 -181 -144 -256 0 -19 -4 -37 -10 -40 -23 -14 0 -132 30
-150 5 -3 10 -34 10 -69 l0 -63 -42 -18 c-67 -28 -120 -55 -153 -76 -16 -10
-36 -22 -42 -25 -23 -11 -58 -78 -75 -144 -13 -47 -18 -105 -18 -213 0 -164 4
-180 67 -251 25 -27 32 -41 24 -49 -8 -8 -17 -7 -33 0 -44 21 -58 22 -107 7
-63 -18 -112 -64 -141 -131 -18 -43 -20 -58 -12 -82 23 -65 -36 -35 -69 34 -5
11 -18 34 -28 50 -11 17 -29 50 -41 75 -79 164 -100 252 -107 443 -5 147 6
238 38 332 6 17 14 44 18 60 4 17 13 39 19 50 6 11 20 40 32 65 27 57 33 68
99 159 93 129 243 256 381 321 104 50 150 66 245 87 39 8 72 17 74 19 7 6 27
5 34 -3z m320 -9 c183 -45 315 -104 434 -193 159 -118 275 -269 356 -461 45
-108 77 -272 77 -398 0 -100 -22 -243 -46 -300 -8 -18 -14 -40 -14 -48 0 -9
-6 -28 -14 -42 -7 -15 -25 -52 -39 -82 -14 -31 -42 -80 -61 -109 -20 -29 -36
-57 -36 -62 0 -8 -32 -29 -45 -29 -3 0 -3 16 1 35 14 78 -43 177 -124 211 -44
18 -101 21 -130 5 -50 -27 -57 1 -11 45 56 53 69 101 69 248 0 95 -6 152 -19
209 -30 122 -65 157 -230 233 l-81 38 0 62 c0 38 5 68 13 76 7 7 18 33 25 57
9 39 7 58 -15 145 -14 56 -32 108 -39 117 -8 8 -14 20 -14 26 0 12 -99 113
-111 113 -5 0 -9 17 -9 39 0 22 -6 44 -15 51 -15 12 -12 30 6 30 5 0 37 -7 72
-16z m-242 -352 c56 -60 122 -88 252 -107 l37 -6 0 -51 c0 -119 -82 -268 -146
-268 -28 0 -84 26 -84 39 0 4 15 12 33 17 22 7 32 16 32 29 0 25 -59 38 -124
27 -56 -9 -61 -30 -13 -54 47 -23 48 -25 13 -42 -82 -43 -146 13 -193 169 -14
50 -17 152 -5 172 4 6 27 21 52 33 25 12 55 35 67 50 13 16 28 29 33 29 6 1
26 -16 46 -37z m-211 -413 c0 -23 79 -112 139 -157 95 -70 104 -74 138 -60 71
31 195 144 228 208 13 26 19 29 31 19 8 -6 14 -16 14 -22 0 -11 -69 -153 -93
-192 -62 -100 -213 -261 -255 -272 -36 -9 -48 11 -18 31 15 9 26 23 26 30 0 8
-21 36 -46 62 -58 61 -141 187 -183 278 -31 65 -32 71 -15 83 17 13 34 9 34
-8z m658 -537 c-3 -16 -31 -17 -403 -17 -371 0 -400 1 -403 17 -3 17 23 18
403 18 381 0 406 -1 403 -18z m6 -94 c-7 -34 -25 -81 -50 -131 -8 -16 -14 -36
-14 -46 0 -9 -7 -26 -15 -37 -8 -10 -15 -29 -15 -41 0 -49 -23 -53 -312 -53
-149 0 -278 4 -292 10 -17 6 -26 17 -26 32 0 13 -7 32 -15 42 -8 11 -15 29
-15 40 0 12 -7 30 -15 40 -8 11 -15 28 -15 37 0 10 -8 32 -17 51 -29 58 -33
68 -33 78 0 7 143 10 421 10 l421 0 -8 -32z m-659 -378 c8 -25 -1 -40 -25 -40
-19 0 -36 32 -25 50 11 17 43 11 50 -10z m295 -10 l0 -30 -134 0 c-80 0 -137
4 -141 10 -3 6 -3 19 0 30 6 19 15 20 141 20 l134 0 0 -30z m245 0 c0 -18 -6
-26 -22 -28 -24 -3 -29 11 -17 43 10 25 39 14 39 -15z m-310 -148 c2 -45 7
-58 35 -87 22 -22 30 -39 26 -51 -5 -14 -16 -15 -84 -9 -156 14 -198 34 -222
105 -10 32 -10 45 0 70 l13 31 115 -3 115 -3 2 -53z"/>
<path d="M1047 1714 c-15 -15 -6 -42 18 -58 52 -34 132 -8 123 41 -3 15 -15
19 -69 21 -35 2 -68 0 -72 -4z"/>
<path d="M1281 1702 c-8 -15 -5 -24 13 -41 29 -27 83 -27 115 0 39 32 18 53
-57 57 -51 2 -62 0 -71 -16z"/>
<path d="M1178 774 c-15 -8 -32 -24 -39 -35 -9 -17 -7 -25 12 -45 36 -38 81
-49 124 -28 46 21 61 49 45 79 -23 44 -91 57 -142 29z"/>
<path d="M4357 2019 c-75 -18 -79 -23 -75 -97 l3 -67 -95 0 c-75 -1 -102 -5
-130 -20 -44 -25 -73 -52 -91 -85 -91 -169 -44 -371 103 -446 49 -25 57 -26
187 -22 110 2 142 6 164 21 l27 17 0 343 c0 253 -3 346 -12 355 -14 14 -27 14
-81 1z m-90 -312 c11 -11 15 -45 15 -144 1 -72 -2 -135 -6 -142 -10 -15 -82
-14 -114 3 -48 25 -62 49 -68 117 -8 85 7 138 48 167 37 26 99 25 125 -1z"/>
<path d="M4658 1894 c-44 -13 -48 -17 -49 -47 -3 -73 3 -79 61 -65 88 21 90
22 90 78 0 48 -1 50 -27 49 -16 0 -49 -7 -75 -15z"/>
<path d="M2911 1853 c-31 -6 -98 -48 -127 -80 -53 -58 -68 -101 -68 -208 -1
-117 21 -175 82 -223 71 -56 95 -63 209 -63 131 0 159 13 148 68 -12 64 -24
86 -43 78 -9 -5 -44 -10 -78 -13 -76 -5 -116 13 -144 68 -59 117 18 260 133
247 23 -2 52 -8 64 -12 16 -5 25 -1 37 18 19 28 24 93 9 108 -11 11 -183 21
-222 12z"/>
<path d="M3441 1853 c-55 -11 -126 -72 -166 -143 -17 -29 -20 -53 -20 -145 1
-103 2 -113 29 -154 63 -99 125 -133 241 -133 99 0 146 20 201 86 120 144 89
373 -63 462 -39 23 -61 28 -123 30 -41 1 -86 0 -99 -3z m143 -153 c92 -81 52
-290 -54 -290 -77 0 -120 58 -120 162 0 46 6 71 20 93 47 71 99 83 154 35z"/>
<path d="M5003 1851 c-34 -4 -69 -14 -78 -21 -13 -11 -15 -50 -15 -269 0 -187
3 -260 12 -269 7 -7 38 -12 70 -12 54 0 59 2 68 26 6 14 9 110 8 215 0 104 2
192 5 195 3 4 26 9 51 11 41 5 48 3 75 -26 37 -40 42 -71 40 -250 -1 -82 1
-154 5 -160 8 -12 103 -15 130 -5 14 5 16 33 16 209 0 247 -10 280 -104 339
-33 21 -180 30 -283 17z"/>
<path d="M5705 1852 c-72 -17 -136 -68 -173 -140 -18 -34 -22 -60 -22 -126 0
-113 33 -186 102 -229 39 -24 129 -36 188 -24 28 5 53 7 57 3 12 -12 -27 -76
-53 -86 -31 -12 -136 -13 -186 -1 -51 12 -67 -3 -74 -65 l-6 -51 59 -16 c130
-37 285 -13 350 53 65 66 73 111 73 398 l0 253 -34 14 c-38 16 -234 28 -281
17z m153 -248 c3 -141 0 -146 -80 -146 -44 0 -56 4 -75 26 -37 43 -46 96 -27
153 23 70 56 93 124 90 l55 -2 3 -121z"/>
<path d="M4677 1705 c-32 -7 -60 -15 -63 -18 -7 -7 -6 -386 1 -397 7 -12 115
-13 133 -2 16 11 13 424 -3 427 -5 1 -36 -3 -68 -10z"/>
<path d="M2746 1135 c-17 -13 -18 -31 -17 -287 2 -284 8 -335 45 -376 46 -51
132 -70 217 -46 l60 17 -3 36 c-3 40 -7 41 -95 26 -33 -6 -49 -3 -76 14 -42
26 -47 47 -47 232 0 116 2 138 16 143 9 3 51 6 93 6 64 0 81 3 95 19 14 15 15
24 6 40 -10 19 -20 21 -98 21 -48 0 -92 4 -99 8 -7 4 -13 38 -15 82 l-3 75
-30 2 c-16 2 -38 -4 -49 -12z"/>
<path d="M5293 1140 l-23 -9 0 -306 0 -305 24 -39 c19 -30 35 -41 71 -51 57
-16 79 -6 83 38 3 26 -1 32 -22 38 -53 13 -56 29 -56 333 0 154 -3 286 -6 295
-7 18 -36 20 -71 6z"/>
<path d="M3320 986 c-19 -6 -46 -17 -59 -25 -33 -18 -91 -83 -91 -101 0 -8 -7
-24 -15 -34 -11 -14 -15 -47 -15 -117 0 -117 19 -169 85 -227 54 -47 117 -67
205 -66 88 2 144 23 148 56 5 38 -21 53 -67 39 -53 -15 -118 -13 -168 7 -44
18 -72 48 -92 99 -25 61 -21 62 181 65 l183 3 3 50 c5 68 -25 158 -66 201 -53
54 -153 76 -232 50z m127 -86 c13 0 53 -54 63 -84 10 -32 10 -40 -1 -47 -21
-13 -243 -11 -256 2 -9 9 -9 18 0 38 34 78 96 117 162 99 16 -4 31 -8 32 -8z"/>
<path d="M3864 986 c-45 -6 -89 -17 -98 -25 -14 -12 -16 -44 -16 -266 0 -221
2 -254 16 -259 26 -10 72 -7 80 6 4 6 6 106 5 220 -2 148 1 213 9 223 17 21
96 30 138 15 72 -23 77 -40 79 -260 l2 -195 24 -9 c13 -5 36 -6 51 -2 l26 6 0
180 c0 109 -4 188 -11 203 -18 39 2 62 64 77 66 15 100 8 138 -30 l29 -28 0
-194 c0 -138 3 -197 12 -206 16 -16 70 -16 86 0 16 16 16 294 0 389 -9 60 -16
75 -49 108 -51 51 -117 65 -208 46 -34 -7 -68 -18 -74 -24 -15 -15 -57 -14
-76 3 -15 13 -109 37 -134 35 -7 -1 -49 -7 -93 -13z"/>
<path d="M4743 985 c-39 -6 -79 -17 -87 -24 -14 -12 -16 -57 -16 -346 0 -360
0 -363 54 -349 40 10 51 31 51 103 0 75 -1 74 100 50 44 -10 59 -10 106 5 64
20 120 66 151 122 18 33 21 57 22 154 1 101 -2 120 -22 156 -41 74 -100 116
-190 134 -62 12 -73 11 -169 -5z m161 -87 c83 -23 126 -91 126 -196 0 -117
-66 -201 -158 -202 -41 0 -117 34 -126 56 -3 8 -6 84 -6 169 0 110 3 155 13
163 28 23 92 27 151 10z"/>
<path d="M5707 984 c-57 -18 -114 -71 -147 -138 -19 -41 -23 -64 -23 -145 1
-108 18 -155 80 -217 44 -44 154 -79 224 -71 115 14 155 41 127 87 -10 16 -19
20 -38 15 -148 -33 -249 0 -280 94 -23 70 -23 70 182 73 l183 3 3 45 c9 113
-66 233 -161 258 -59 15 -89 14 -150 -4z m138 -87 c46 -24 82 -110 53 -128
-19 -13 -246 -11 -253 2 -8 12 12 66 34 93 39 47 111 61 166 33z"/>
</g>
</svg>
